<?xml version="1.0" encoding="UTF-8" standalone="no"?>
<!-- Created with Inkscape (http://www.inkscape.org/) -->

<svg
   xmlns:dc="http://purl.org/dc/elements/1.1/"
   xmlns:cc="http://creativecommons.org/ns#"
   xmlns:rdf="http://www.w3.org/1999/02/22-rdf-syntax-ns#"
   xmlns:svg="http://www.w3.org/2000/svg"
   xmlns="http://www.w3.org/2000/svg"
   xmlns:sodipodi="http://sodipodi.sourceforge.net/DTD/sodipodi-0.dtd"
   xmlns:inkscape="http://www.inkscape.org/namespaces/inkscape"
   width="56.676899mm"
   height="118.62867mm"
   viewBox="0 0 200.82361 420.33785"
   id="svg2"
   version="1.1"
   inkscape:version="0.91 r13725"
   sodipodi:docname="rightstal.svg">
  <defs
     id="defs4" />
  <sodipodi:namedview
     id="base"
     pagecolor="#ffffff"
     bordercolor="#666666"
     borderopacity="1.0"
     inkscape:pageopacity="0.0"
     inkscape:pageshadow="2"
     inkscape:zoom="1.979899"
     inkscape:cx="104.01196"
     inkscape:cy="197.60034"
     inkscape:document-units="px"
     inkscape:current-layer="layer1"
     showgrid="false"
     fit-margin-top="0"
     fit-margin-left="0.2"
     fit-margin-right="0"
     fit-margin-bottom="0"
     inkscape:window-width="1855"
     inkscape:window-height="1056"
     inkscape:window-x="65"
     inkscape:window-y="24"
     inkscape:window-maximized="1" />
  <metadata
     id="metadata7">
    <rdf:RDF>
      <cc:Work
         rdf:about="">
        <dc:format>image/svg+xml</dc:format>
        <dc:type
           rdf:resource="http://purl.org/dc/dcmitype/StillImage" />
        <dc:title></dc:title>
      </cc:Work>
    </rdf:RDF>
  </metadata>
  <g
     inkscape:label="Layer 1"
     inkscape:groupmode="layer"
     id="layer1"
     transform="translate(0.29560106,0.03709712)">
    <path
       style="fill:#2d2d2d;fill-opacity:1"
       d="m 8.2684324,420.27643 c -0.66815,-1.02987 -1.69438,-123.4509 -1.73367,-206.81354 -0.0155,-32.82774 -0.72096,-45.5 -2.53307,-45.5 -2.7757599,0 -3.40396984,-8.21229 -0.90151,-11.78505 1.30671,-1.86559 1.36304,-2.78026 0.34466,-5.59652 -1.25775,-3.47827 -0.74959,-6.61843 1.07106,-6.61843 0.57226,0 2.45313,1.35 4.1797,3 1.7265596,1.65 3.7585986,3 4.5156386,3 1.71966,0 3.57141,-4.65437 2.80832,-7.05868 -0.83972,-2.64572 2.00853,-8.64465 4.47629,-9.42789 1.31056,-0.41595 3.09044,-0.0567 4.59129,0.92669 l 2.45104,1.60599 0,-53.523047 c 0,-35.01537 -0.34579,-53.52305 -1,-53.52305 -0.55,0 -1,-1.15156 -1,-2.55902 0,-1.55407 -0.41786,-2.30076 -1.06406,-1.90139 -0.62806,0.38816 -0.99355,3.79283 -0.89198,8.30902 0.23217,10.32289 -1.15324,29.15139 -2.14497,29.15139 -1.39067,0 -2.31517,-10.56815 -2.69003,-30.75 -0.12434,-6.69403 -0.61394,-11.25 -1.20896,-11.25 -0.55,0 -1,2.025 -1,4.5 0,5.58784 -1.75133,5.9073 -2.61954,0.47784 -0.75586,-4.72694 -2.32069,-6.28637 -2.27154,-2.26372 0.0187,1.53223 -0.39638,4.58588 -0.92244,6.78588 -0.7758291,3.24451 -0.978199,3.49131 -1.071479,1.3067 -0.0637,-1.49171 -1.0400396,-3.34122 -2.1884396,-4.14559 -1.29695,-0.90842 -1.67145,-1.70075 -1,-2.11572 1.26974,-0.78474 1.46607,-10.54539 0.21211,-10.54539 -0.47373,0 -0.65339,-1.08776 -0.39924,-2.41725 0.37126,-1.9421404 5e-5,-2.48264 -1.88867,-2.75 -1.98675,-0.28122 -2.39838,-0.99086 -2.65826,-4.58275 l -0.3074999,-4.25000012 100.0575175,0 100.0575,0 0,51.05902012 c 0,33.7847 -0.33832,50.849907 -1,50.440967 -0.55,-0.33992 -1,-4.261207 -1,-8.713997 0,-7.92079 -0.0416,-8.05836 -1.92042,-6.35801 -1.82634,1.65281 -1.96826,1.64816 -2.89722,-0.095 -0.53725,-1.00814 -1.31701,-8.35797 -1.7328,-16.33297 -0.41579,-7.975 -0.95579,-13.91872 -1.20001,-13.20826 -0.3411,0.99227 -0.76925,1.02184 -1.8468,0.12755 -1.0306,-0.85532 -1.41082,-3.85102 -1.43316,-11.29174 -0.0387,-12.87123 -1.29794,-10.76899 -2.91872,4.87245 -1.30149,12.56009 -1.30073,12.55655 -3.50778,16.40139 -0.96146,1.67493 -1.10081,3.13169 -0.46064,4.81548 0.60359,1.58755 0.52873,3.14113 -0.21863,4.53759 -0.62506,1.16793 -1.36015,6.04653 -1.63354,10.84134 -0.53081,9.30968 -1.40842,12.12606 -3.21548,10.319 -1.20377,-1.20377 -3.96541,-20.36722 -3.99528,-27.72382 -0.0128,-3.14954 -0.38782,-4.58139 -1.08683,-4.14938 -0.5971,0.36903 -1.35698,-0.37595 -1.72483,-1.69098 -0.58839,-2.10343 -0.71276,-1.98376 -1.1827,1.13803 -0.7175,4.76638 -4.02516,5.58077 -4.02516,0.99105 0,-2.32594 -0.53111,-3.30583 -2,-3.68995 -2.0721,-0.54187 -2.85401,-4.28975 -0.89496,-4.28975 0.73636,0 0.88599,-1.41794 0.4485,-4.25 -0.36109,-2.3375 -0.69579,-6.05 -0.74377,-8.25 -0.048,-2.2 -0.28124,-2.98651 -0.51834,-1.74781 -0.23711,1.23871 -1.29968,2.71704 -2.36127,3.28519 -1.06159,0.56814 -1.93016,1.99771 -1.93016,3.17681 0,2.0246 -1.46436,7.48089 -2.8947,10.78581 -0.35705,0.825 -0.5294,6 -0.383,11.5 0.71374,26.81359 0.65725,28.423117 -1.06431,30.325407 -1.39901,1.54589 -1.65799,4.33888 -1.65799,17.88088 0,12.09623 -0.32603,16.31939 -1.32379,17.14746 -1.88966,1.56828 -3.67261,-0.51068 -3.69099,-4.30376 -0.008,-1.6775 -0.64116,-5.75 -1.40674,-9.05 -0.76558,-3.3 -1.38201,-8.41635 -1.36984,-11.36967 0.0131,-3.1746 -0.47758,-5.67851 -1.20027,-6.12516 -0.73062,-0.45155 -0.95108,-1.61031 -0.54799,-2.88032 0.46749,-1.47296 0.24663,-2.12485 -0.71991,-2.12485 -1.02583,0 -1.32641,-1.20287 -1.13737,-4.551517 0.27316,-4.83887 -0.75431,-9.12715 -3.31784,-13.8475 -0.86592,-1.59447 -2.18142,-6.09447 -2.92333,-10 -1.8335,-9.65189 -2.04041,-10.1127 -3.86193,-8.60097 -1.17606,0.97604 -1.56432,0.9481 -1.90894,-0.13738 -0.23793,-0.74944 -0.8528,-2.71262 -1.36638,-4.36262 -0.80618,-2.59009 -1.03654,-1.83857 -1.68585,5.5 -0.41364,4.675 -1.34594,9.175 -2.07178,10 -0.72585,0.825 -1.51358,3.44464 -1.75053,5.82143 -0.45163,4.5303 -2.75581,7.89035 -4.62056,6.73788 -0.60278,-0.37254 -1.09596,-1.57734 -1.09596,-2.67734 0,-1.1 -0.38718,-1.76072 -0.86039,-1.46825 -0.91384,0.56478 -2.12939,-8.63567 -2.15492,-16.31041 -0.0166,-5.00209 -1.24144,-8.11494 -2.43382,-6.18562 -0.38452,0.62217 -0.613,4.83271 -0.50773,9.35676 0.49534,21.2881 -1.65177,37.852557 -5.53815,42.725537 -1.29571,1.62464 -1.43776,5.80762 -0.25935,7.63669 0.40279,0.62518 0.0673,1.68867 -0.74564,2.36331 -0.81289,0.67464 -1.23924,1.61292 -0.94743,2.08506 0.2918,0.47215 -0.20195,1.97637 -1.097217,3.34272 -0.895272,1.36635 -1.359162,2.91887 -1.030872,3.45006 0.32829,0.53118 0.642799,4.02595 0.698909,7.76615 0.0743,4.95475 0.53072,7.11384 1.68163,7.95539 1.26753,0.92684 1.5796,3.24989 1.5796,11.75867 0,9.53739 -0.22045,10.8383 -2.19232,12.93725 -2.069319,2.20268 -2.192319,3.23837 -2.192319,18.46013 0,8.8696 -0.39901,16.37314 -0.88669,16.67454 -2.50147,1.546 -4.82369,-7.06631 -5.66998,-21.02801 -0.32938,-5.43403 -1.02912,-10.14596 -1.55497,-10.47096 -0.52586,-0.32499 -0.66771,-1.34242 -0.31524,-2.26095 0.47369,-1.23442 0.0913,-1.67005 -1.46613,-1.67005 -1.20621,0 -2.10699,-0.64128 -2.10699,-1.5 0,-0.825 0.50008,-1.5 1.11129,-1.5 1.44315,0 0.52455,-5.08475 -2.80019,-15.5 -1.40457,-4.4 -2.81094,-8.675 -3.12528,-9.5 -0.31433,-0.825 -0.63301,-1.95 -0.70817,-2.5 -0.0752,-0.55 -0.68351,-2.92288 -1.35191,-5.27307 -0.66839,-2.35019 -0.97507,-4.66171 -0.68151,-5.1367 0.29356,-0.47499 -0.1363,-1.4197 -0.95524,-2.09937 -0.81895,-0.67966 -1.48899,-2.25055 -1.48899,-3.49086 0,-1.24031 -0.69548,-2.83231 -1.54551,-3.53777 -0.85003,-0.70546 -1.32674,-1.85276 -1.05935,-2.54956 0.46046,-1.19994 -0.78566,-6.09451 -2.40662,-9.45285 -0.40887,-0.84709 -1.07352,-4.89709 -1.477,-9 -0.40348,-4.102887 -1.0771,-7.909807 -1.49693,-8.459807 -0.87033,-1.14019 -1.63848,-5.05004 -2.90909,-14.80714 -0.48755,-3.74393 -1.14949,-7.07018 -1.47097,-7.39167 -0.32149,-0.32148 -1.4808,0.49173 -2.57626,1.80715 l -1.99173,2.39166 -0.1695,-3.5 c -0.37113,-7.66355 -0.84941,-10.65709 -2.22561,-13.93012 l -1.43692,-3.41742 -0.6045,3.92377 c -0.33248,2.15807 -1.30695,10.20798 -2.1655,17.88867 -1.96523,17.58134 -2.54469,18.57331 -2.94128,5.0351 -0.22694,-7.74666 -1.68403,-15.51795 -3.19239,-17.0263 -0.8388,-0.8388 -1.27051,-2.18853 -0.95935,-2.9994 0.31116,-0.81086 0.12986,-1.4743 -0.40288,-1.4743 -0.53273,0 -1.00304,0.3375 -1.04512,0.75 -0.0421,0.4125 -0.30185,1.65 -0.57727,2.75 -0.27542,1.1 -0.74508,4.5875 -1.04368,7.75 -0.6567,6.95504 -2.22999,7.58685 -2.49014,1 -0.45882,-11.61729 -1.204,-17.46412 -2.48825,-19.52342 -0.73458,-1.17789 -1.15707,-3.66268 -1.4413,-8.47658 -0.15982,-2.7068 -0.72889,-2.82104 -2.4908,-0.5 -1.13502,1.4952 -1.3353,0.36681 -1.37556,-7.75 -0.0259,-5.225 -0.48333,-10.175 -1.01649,-11 -0.63164,-0.9774 -0.97471,20.03725 -0.98469,60.31739 l -0.0153,61.817377 2.16606,-0.68748 c 1.19133,-0.37812 3.38852,-2.02592 4.88265,-3.66177 3.10817,-3.40301 4.0111,-2.67923 3.78716,3.03576 -0.13579,3.46547 -0.81333,4.59151 -4.89054,8.12785 -5.08915,4.41403 -6.7949,8.88015 -5.04038,13.19708 0.52615,1.29458 1.22135,3.59128 1.54489,5.10378 0.32355,1.5125 1.15245,2.75 1.84202,2.75 0.68956,0 3.68693,1.60244 6.66081,3.56097 2.97389,1.95854 6.71494,3.82255 8.31345,4.14225 1.73934,0.34787 3.34458,1.54301 3.99765,2.97635 0.6002,1.31729 2.4855,3.05668 4.18957,3.86531 1.70406,0.80863 5.40929,3.49184 8.23383,5.96268 5.62135,4.91742 6.46361,5.22061 8.31283,2.99244 2.81324,-3.38975 5.98778,-0.22483 3.83406,3.82244 -0.63732,1.19766 -2.73561,3.84625 -4.66287,5.88577 -3.4776,3.68016 -3.52553,3.69555 -6.33765,2.03439 -1.55845,-0.9206 -2.83354,-1.95456 -2.83354,-2.29769 0,-0.34314 -1.07884,-1.11543 -2.39742,-1.71622 -2.62351,-1.19535 -5.61539,-3.67023 -11.61323,-9.60644 -2.453,-2.4278 -5.33353,-4.16723 -7.70368,-4.65193 -2.08212,-0.4258 -5.231,-1.36049 -6.99751,-2.07709 -1.7665,-0.71659 -3.53551,-0.97921 -3.93113,-0.58359 -0.39562,0.39561 -1.10653,3.07529 -1.57982,5.95483 -1.74172,10.59693 -2.01586,11.76499 -2.8877,12.30382 -0.48923,0.30236 -0.88951,2.04833 -0.88951,3.87994 0,1.83161 -0.84714,4.37637 -1.88253,5.65503 -1.6853,2.08125 -2.16745,2.195 -4.60211,1.08569 -2.34429,-1.06813 -2.61334,-1.61515 -1.9497,-3.96404 0.42344,-1.4987 0.8676,-4.74991 0.98702,-7.22491 0.11943,-2.475 0.54572,-7.53161 0.94732,-11.2369 0.71119,-6.56158 0.64822,-6.83483 -2.41969,-10.5 -4.8535,-5.7984 -5.01298,-6.02122 -6.24514,-8.72551 -0.63591,-1.39567 -1.4214691,-2.53764 -1.745689,-2.53769 -0.3242096,-6e-5 -0.4719596,35.43744 -0.3283296,78.75 0.3402196,102.59717 -0.0686,169.0469 -1.0309,167.56364 z M 11.346511,153.88789 c -0.19708,-0.59125 -0.785829,-1.075 -1.308329,-1.075 -0.5224996,0 -1.1112496,0.48375 -1.3083296,1.075 -0.19709,0.59125 0.39166,1.075 1.3083296,1.075 0.916669,0 1.505419,-0.48375 1.308329,-1.075 z"
       id="path4890"
       inkscape:connector-curvature="0" />
  </g>
</svg>
